<svg xmlns="http://www.w3.org/2000/svg" viewBox="0 0 32 32" width="32" height="32">
  <defs>
    <linearGradient id="carbn_blue_steer" x1="0%" y1="0%" x2="0%" y2="100%">
      <stop offset="0%" style="stop-color:#00C6FF;stop-opacity:1" /> <stop offset="100%" style="stop-color:#0072FF;stop-opacity:1" /> </linearGradient>
  </defs>
  <title>carbn Blue Steering Wheel Icon</title>
  <path fill="url(#carbn_blue_steer)" d="M16,2C8.268,2,2,8.268,2,16s6.268,14,14,14s14-6.268,14-14S23.732,2,16,2z M16,6c5.523,0,10,4.477,10,10 c0,1.854-0.527,3.588-1.428,5.056L21,21h-3v3.869c-0.64,0.086-1.311,0.131-2,0.131s-1.36-0.045-2-0.131V21h-3l-3.572,0.056 C6.527,19.588,6,17.854,6,16C6,10.477,10.477,6,16,6z M16,14c-1.105,0-2,0.895-2,2h-4v3h4c0,1.105,0.895,2,2,2s2-0.895,2-2h4v-3h-4 C18,14.895,17.105,14,16,14z"/>
</svg>